<svg id="svg" version="1.1" xmlns="http://www.w3.org/2000/svg" xmlns:xlink="http://www.w3.org/1999/xlink" width="400" height="18.852459016393443" viewBox="0, 0, 400,18.852459016393443"><g id="svgg"><path id="path0" d="M2.470 0.375 C 2.429 0.662,2.290 0.762,1.875 0.802 C 1.539 0.835,1.333 0.946,1.333 1.094 C 1.333 1.226,1.226 1.333,1.094 1.333 C 0.946 1.333,0.835 1.539,0.802 1.875 C 0.762 2.290,0.662 2.429,0.375 2.470 C -0.049 2.530,-0.164 3.167,0.250 3.167 C 0.388 3.167,0.500 3.308,0.500 3.482 C 0.500 3.655,0.654 3.973,0.843 4.190 C 1.165 4.560,1.175 4.562,1.009 4.219 C 0.731 3.644,0.783 2.500,1.087 2.500 C 1.227 2.500,1.413 2.311,1.501 2.080 C 1.589 1.850,1.850 1.589,2.080 1.501 C 2.311 1.413,2.500 1.227,2.500 1.087 C 2.500 0.783,3.644 0.731,4.219 1.009 C 4.562 1.175,4.560 1.165,4.190 0.843 C 3.973 0.654,3.655 0.500,3.482 0.500 C 3.308 0.500,3.167 0.388,3.167 0.250 C 3.167 -0.164,2.530 -0.049,2.470 0.375 M396.833 0.250 C 396.833 0.388,396.692 0.500,396.518 0.500 C 396.345 0.500,396.027 0.654,395.810 0.843 C 395.440 1.165,395.438 1.175,395.781 1.009 C 396.356 0.731,397.500 0.783,397.500 1.087 C 397.500 1.227,397.689 1.413,397.920 1.501 C 398.150 1.589,398.411 1.850,398.499 2.080 C 398.587 2.311,398.773 2.500,398.913 2.500 C 399.217 2.500,399.269 3.644,398.991 4.219 C 398.825 4.562,398.835 4.560,399.157 4.190 C 399.346 3.973,399.500 3.655,399.500 3.482 C 399.500 3.308,399.613 3.167,399.750 3.167 C 400.164 3.167,400.049 2.530,399.625 2.470 C 399.338 2.429,399.238 2.290,399.198 1.875 C 399.165 1.539,399.054 1.333,398.906 1.333 C 398.774 1.333,398.667 1.226,398.667 1.094 C 398.667 0.946,398.461 0.835,398.125 0.802 C 397.710 0.762,397.571 0.662,397.530 0.375 C 397.470 -0.049,396.833 -0.164,396.833 0.250 M0.759 14.704 C 0.617 14.907,0.500 15.207,0.500 15.370 C 0.500 15.533,0.388 15.667,0.250 15.667 C -0.164 15.667,-0.049 16.303,0.375 16.363 C 0.662 16.404,0.762 16.543,0.802 16.958 C 0.835 17.294,0.946 17.500,1.094 17.500 C 1.226 17.500,1.333 17.608,1.333 17.739 C 1.333 17.888,1.539 17.999,1.875 18.031 C 2.290 18.071,2.429 18.171,2.470 18.458 C 2.530 18.883,3.167 18.997,3.167 18.583 C 3.167 18.446,3.308 18.333,3.482 18.333 C 3.655 18.333,3.973 18.179,4.190 17.991 C 4.560 17.668,4.562 17.658,4.219 17.824 C 3.644 18.102,2.500 18.050,2.500 17.746 C 2.500 17.606,2.311 17.420,2.080 17.332 C 1.850 17.244,1.589 16.984,1.501 16.753 C 1.413 16.522,1.227 16.333,1.087 16.333 C 0.785 16.333,0.729 15.173,1.006 14.656 C 1.241 14.216,1.079 14.248,0.759 14.704 M398.991 14.614 C 399.269 15.189,399.217 16.333,398.913 16.333 C 398.773 16.333,398.587 16.522,398.499 16.753 C 398.411 16.984,398.150 17.244,397.920 17.332 C 397.689 17.420,397.500 17.606,397.500 17.746 C 397.500 18.050,396.356 18.102,395.781 17.824 C 395.438 17.658,395.440 17.668,395.810 17.991 C 396.027 18.179,396.345 18.333,396.518 18.333 C 396.692 18.333,396.833 18.446,396.833 18.583 C 396.833 18.997,397.470 18.883,397.530 18.458 C 397.571 18.171,397.710 18.071,398.125 18.031 C 398.461 17.999,398.667 17.888,398.667 17.739 C 398.667 17.608,398.774 17.500,398.906 17.500 C 399.054 17.500,399.165 17.294,399.198 16.958 C 399.238 16.543,399.338 16.404,399.625 16.363 C 400.049 16.303,400.164 15.667,399.750 15.667 C 399.613 15.667,399.500 15.525,399.500 15.352 C 399.500 15.179,399.346 14.860,399.157 14.643 C 398.835 14.273,398.825 14.272,398.991 14.614 " stroke="none" fill="#8c8c8c" fill-rule="evenodd"></path><path id="path1" d="M1.167 0.250 C 1.167 0.389,1.019 0.500,0.833 0.500 C 0.609 0.500,0.500 0.611,0.500 0.839 C 0.500 1.025,0.388 1.220,0.250 1.273 C 0.094 1.333,-0.000 1.587,-0.000 1.946 C -0.000 2.770,0.722 2.706,0.802 1.875 C 0.835 1.539,0.946 1.333,1.094 1.333 C 1.226 1.333,1.333 1.226,1.333 1.094 C 1.333 0.946,1.539 0.835,1.875 0.802 C 2.781 0.715,2.754 0.000,1.845 0.000 C 1.353 0.000,1.167 0.069,1.167 0.250 M397.530 0.375 C 397.571 0.662,397.710 0.762,398.125 0.802 C 398.461 0.835,398.667 0.946,398.667 1.094 C 398.667 1.226,398.774 1.333,398.906 1.333 C 399.054 1.333,399.165 1.539,399.198 1.875 C 399.278 2.706,400.000 2.770,400.000 1.946 C 400.000 1.587,399.906 1.333,399.750 1.273 C 399.613 1.220,399.500 1.025,399.500 0.839 C 399.500 0.611,399.391 0.500,399.167 0.500 C 398.981 0.500,398.833 0.389,398.833 0.250 C 398.833 0.069,398.647 0.000,398.155 0.000 C 397.547 0.000,397.482 0.039,397.530 0.375 M2.500 1.087 C 2.500 1.227,2.311 1.413,2.080 1.501 C 1.850 1.589,1.589 1.850,1.501 2.080 C 1.413 2.311,1.227 2.500,1.087 2.500 C 0.783 2.500,0.730 3.765,1.017 4.167 C 1.159 4.366,1.178 4.337,1.109 4.026 C 0.984 3.457,1.148 3.167,1.596 3.167 C 1.947 3.167,1.986 3.098,1.953 2.542 C 1.917 1.918,1.918 1.917,2.542 1.953 C 3.098 1.986,3.167 1.947,3.167 1.596 C 3.167 1.148,3.457 0.984,4.026 1.109 C 4.337 1.178,4.366 1.159,4.167 1.017 C 3.765 0.730,2.500 0.783,2.500 1.087 M395.833 1.017 C 395.634 1.159,395.663 1.178,395.974 1.109 C 396.543 0.984,396.833 1.148,396.833 1.596 C 396.833 1.947,396.902 1.986,397.458 1.953 C 398.082 1.917,398.083 1.918,398.047 2.542 C 398.014 3.098,398.053 3.167,398.404 3.167 C 398.852 3.167,399.016 3.457,398.891 4.026 C 398.822 4.337,398.841 4.366,398.983 4.167 C 399.270 3.765,399.217 2.500,398.913 2.500 C 398.773 2.500,398.587 2.311,398.499 2.080 C 398.411 1.850,398.150 1.589,397.920 1.501 C 397.689 1.413,397.500 1.227,397.500 1.087 C 397.500 0.783,396.235 0.730,395.833 1.017 M0.934 14.764 C 0.723 15.314,0.823 16.333,1.087 16.333 C 1.227 16.333,1.413 16.522,1.501 16.753 C 1.589 16.984,1.850 17.244,2.080 17.332 C 2.311 17.420,2.500 17.606,2.500 17.746 C 2.500 18.050,3.765 18.103,4.167 17.816 C 4.366 17.674,4.337 17.655,4.026 17.724 C 3.457 17.850,3.167 17.685,3.167 17.237 C 3.167 16.887,3.098 16.847,2.542 16.880 C 1.918 16.917,1.917 16.915,1.953 16.292 C 1.986 15.735,1.947 15.667,1.596 15.667 C 1.154 15.667,0.978 15.369,1.114 14.849 C 1.221 14.442,1.083 14.377,0.934 14.764 M398.891 14.808 C 399.016 15.376,398.852 15.667,398.404 15.667 C 398.053 15.667,398.014 15.735,398.047 16.292 C 398.083 16.915,398.082 16.917,397.458 16.880 C 396.902 16.847,396.833 16.887,396.833 17.237 C 396.833 17.685,396.543 17.850,395.974 17.724 C 395.663 17.655,395.634 17.674,395.833 17.816 C 396.235 18.103,397.500 18.050,397.500 17.746 C 397.500 17.606,397.689 17.420,397.920 17.332 C 398.150 17.244,398.411 16.984,398.499 16.753 C 398.587 16.522,398.773 16.333,398.913 16.333 C 399.217 16.333,399.270 15.069,398.983 14.667 C 398.841 14.468,398.822 14.496,398.891 14.808 M-0.000 16.887 C -0.000 17.246,0.094 17.501,0.250 17.560 C 0.387 17.613,0.500 17.809,0.500 17.995 C 0.500 18.222,0.609 18.333,0.833 18.333 C 1.019 18.333,1.167 18.444,1.167 18.583 C 1.167 18.765,1.353 18.833,1.845 18.833 C 2.754 18.833,2.781 18.118,1.875 18.031 C 1.539 17.999,1.333 17.888,1.333 17.739 C 1.333 17.608,1.226 17.500,1.094 17.500 C 0.946 17.500,0.835 17.294,0.802 16.958 C 0.722 16.128,0.000 16.064,-0.000 16.887 M399.278 16.444 C 399.217 16.506,399.167 16.768,399.167 17.028 C 399.167 17.336,399.080 17.500,398.917 17.500 C 398.779 17.500,398.667 17.608,398.667 17.739 C 398.667 17.888,398.461 17.999,398.125 18.031 C 397.219 18.118,397.246 18.833,398.155 18.833 C 398.647 18.833,398.833 18.765,398.833 18.583 C 398.833 18.444,398.981 18.333,399.167 18.333 C 399.391 18.333,399.500 18.222,399.500 17.995 C 399.500 17.809,399.613 17.613,399.750 17.560 C 400.136 17.412,400.088 16.333,399.694 16.333 C 399.526 16.333,399.339 16.383,399.278 16.444 " stroke="none" fill="#cccccc" fill-rule="evenodd"></path><path id="path2" d="M3.375 1.110 C 2.817 1.335,3.151 2.021,3.792 1.968 C 4.433 1.915,4.885 1.167,4.275 1.167 C 4.139 1.167,3.927 1.135,3.805 1.097 C 3.683 1.058,3.490 1.064,3.375 1.110 M395.865 1.119 C 395.183 1.249,395.448 1.905,396.208 1.968 C 396.775 2.015,396.833 1.982,396.833 1.611 C 396.833 1.295,396.447 0.886,396.278 1.023 C 396.263 1.035,396.077 1.078,395.865 1.119 M1.898 2.072 C 1.733 2.502,1.961 2.833,2.423 2.833 C 2.797 2.833,2.848 2.771,2.803 2.375 C 2.742 1.847,2.071 1.622,1.898 2.072 M397.285 1.937 C 396.944 2.278,397.171 2.855,397.625 2.803 C 397.989 2.761,398.083 2.664,398.083 2.333 C 398.083 1.920,397.561 1.661,397.285 1.937 M1.118 3.386 C 0.927 3.883,1.196 4.500,1.603 4.500 C 1.955 4.500,2.000 4.425,2.000 3.833 C 2.000 3.149,1.338 2.812,1.118 3.386 M398.000 3.833 C 398.000 4.674,398.727 4.855,398.880 4.052 C 399.000 3.423,398.861 3.167,398.399 3.167 C 398.045 3.167,398.000 3.241,398.000 3.833 M1.120 14.781 C 1.000 15.410,1.139 15.667,1.601 15.667 C 1.955 15.667,2.000 15.592,2.000 15.000 C 2.000 14.159,1.273 13.978,1.120 14.781 M398.000 15.000 C 398.000 15.592,398.045 15.667,398.399 15.667 C 398.861 15.667,399.000 15.410,398.880 14.781 C 398.727 13.978,398.000 14.159,398.000 15.000 M1.894 16.250 C 1.732 16.672,1.969 17.028,2.374 16.970 C 2.968 16.886,3.012 16.000,2.423 16.000 C 2.184 16.000,1.946 16.112,1.894 16.250 M397.196 16.446 C 397.239 16.823,397.333 16.917,397.667 16.917 C 398.315 16.917,398.266 16.104,397.613 16.029 C 397.185 15.980,397.147 16.018,397.196 16.446 M3.167 17.222 C 3.167 17.696,3.420 17.834,4.061 17.712 C 4.804 17.570,4.601 16.932,3.792 16.865 C 3.225 16.818,3.167 16.852,3.167 17.222 M395.611 16.944 C 395.340 17.215,395.523 17.632,395.948 17.713 C 396.577 17.834,396.833 17.694,396.833 17.232 C 396.833 16.837,395.931 16.625,395.611 16.944 " stroke="none" fill="#e8e8e8" fill-rule="evenodd"></path><path id="path3" d="M3.167 0.250 C 3.167 0.388,3.242 0.500,3.333 0.500 C 3.425 0.500,3.500 0.388,3.500 0.250 C 3.500 0.112,3.425 0.000,3.333 0.000 C 3.242 0.000,3.167 0.112,3.167 0.250 M396.500 0.250 C 396.500 0.388,396.575 0.500,396.667 0.500 C 396.758 0.500,396.833 0.388,396.833 0.250 C 396.833 0.112,396.758 0.000,396.667 0.000 C 396.575 0.000,396.500 0.112,396.500 0.250 M0.000 3.333 C 0.000 3.425,0.112 3.500,0.250 3.500 C 0.388 3.500,0.500 3.425,0.500 3.333 C 0.500 3.242,0.388 3.167,0.250 3.167 C 0.112 3.167,0.000 3.242,0.000 3.333 M399.500 3.333 C 399.500 3.425,399.613 3.500,399.750 3.500 C 399.887 3.500,400.000 3.425,400.000 3.333 C 400.000 3.242,399.887 3.167,399.750 3.167 C 399.613 3.167,399.500 3.242,399.500 3.333 M0.000 15.500 C 0.000 15.592,0.112 15.667,0.250 15.667 C 0.388 15.667,0.500 15.592,0.500 15.500 C 0.500 15.408,0.388 15.333,0.250 15.333 C 0.112 15.333,0.000 15.408,0.000 15.500 M399.500 15.500 C 399.500 15.592,399.613 15.667,399.750 15.667 C 399.887 15.667,400.000 15.592,400.000 15.500 C 400.000 15.408,399.887 15.333,399.750 15.333 C 399.613 15.333,399.500 15.408,399.500 15.500 M3.167 18.583 C 3.167 18.721,3.242 18.833,3.333 18.833 C 3.425 18.833,3.500 18.721,3.500 18.583 C 3.500 18.446,3.425 18.333,3.333 18.333 C 3.242 18.333,3.167 18.446,3.167 18.583 M396.500 18.583 C 396.500 18.721,396.575 18.833,396.667 18.833 C 396.758 18.833,396.833 18.721,396.833 18.583 C 396.833 18.446,396.758 18.333,396.667 18.333 C 396.575 18.333,396.500 18.446,396.500 18.583 " stroke="none" fill="#7c7c7c" fill-rule="evenodd"></path><path id="path4" d="M3.500 0.250 C 3.500 0.389,3.648 0.500,3.832 0.500 C 4.014 0.500,4.258 0.650,4.372 0.833 C 4.701 1.361,395.299 1.361,395.628 0.833 C 395.742 0.650,395.986 0.500,396.168 0.500 C 396.352 0.500,396.500 0.389,396.500 0.250 C 396.500 0.028,374.556 0.000,200.000 0.000 C 25.444 0.000,3.500 0.028,3.500 0.250 M0.000 9.417 C 0.000 14.565,0.032 15.333,0.250 15.333 C 0.389 15.333,0.500 15.185,0.500 15.001 C 0.500 14.819,0.650 14.576,0.833 14.461 C 1.353 14.137,1.353 4.697,0.833 4.372 C 0.650 4.258,0.500 4.014,0.500 3.832 C 0.500 3.648,0.389 3.500,0.250 3.500 C 0.032 3.500,0.000 4.269,0.000 9.417 M399.500 3.832 C 399.500 4.014,399.350 4.258,399.167 4.372 C 398.846 4.572,398.833 4.761,398.833 9.417 C 398.833 14.073,398.846 14.261,399.167 14.461 C 399.350 14.576,399.500 14.819,399.500 15.001 C 399.500 15.185,399.611 15.333,399.750 15.333 C 399.968 15.333,400.000 14.565,400.000 9.417 C 400.000 4.269,399.968 3.500,399.750 3.500 C 399.611 3.500,399.500 3.648,399.500 3.832 M4.372 18.000 C 4.258 18.183,4.014 18.333,3.832 18.333 C 3.648 18.333,3.500 18.445,3.500 18.583 C 3.500 18.805,25.444 18.833,200.000 18.833 C 374.556 18.833,396.500 18.805,396.500 18.583 C 396.500 18.445,396.352 18.333,396.168 18.333 C 395.986 18.333,395.742 18.183,395.628 18.000 C 395.299 17.472,4.701 17.472,4.372 18.000 " stroke="none" fill="#6c6c6c" fill-rule="evenodd"></path></g></svg>